<svg width="48" height="48" viewBox="0 0 48 48" fill="none" xmlns="http://www.w3.org/2000/svg">
<path d="M24 0C10.7374 0 0 10.7586 0 24C0 37.2626 10.7586 48 24 48C37.2413 48 48 37.2413 48 24C48.0212 10.7374 37.2626 0 24 0ZM39.5119 25.3156L29.305 35.565C28.435 36.435 27.2891 36.8806 26.122 36.8806C25.549 36.8806 24.9549 36.7745 24.382 36.5411C22.6843 35.8408 21.7506 34.2069 21.7506 32.3607V31.7241L17.9522 35.5437C17.0822 36.4138 15.9363 36.8594 14.7692 36.8594C14.1963 36.8594 13.6021 36.7533 13.0292 36.5199C11.3316 35.8196 10.2493 34.1856 10.2493 32.3395V23.7878C10.2493 22.7055 11.1406 21.8143 12.2228 21.8143C13.305 21.8143 14.1963 22.7055 14.1963 23.7878V32.3395C14.1963 32.6578 14.3873 32.8063 14.557 32.87C14.7268 32.9337 14.9602 32.9761 15.1724 32.7427L24.191 23.7241C24.3395 23.5756 24.3607 23.427 24.3607 23.3209C24.3607 23.2148 24.3395 23.0451 24.191 22.9178L14.9602 13.7082C14.1963 12.9443 14.1963 11.6923 14.9602 10.9284C15.7241 10.1644 16.9761 10.1644 17.7613 10.9284L28.1379 21.3262C29.305 22.557 29.3262 24.1697 28.1591 25.3369L25.5491 27.9469V32.3819C25.5491 32.7002 25.74 32.8488 25.9098 32.9124C26.0795 32.9761 26.313 33.0185 26.5252 32.7851L35.5437 23.7666C35.6923 23.618 35.7135 23.4695 35.7135 23.3634C35.7135 23.2573 35.6923 23.0875 35.5437 22.9602L26.313 13.7294C25.5491 12.9655 25.5491 11.7135 26.313 10.9496C27.0769 10.1857 28.3289 10.1857 29.114 10.9496L39.4907 21.3475C40.6578 22.5358 40.679 24.1485 39.5119 25.3156Z" fill="white"/>
</svg>
