<svg width="100%" height="100%" viewBox="0 0 139 48" fill="none" xmlns="http://www.w3.org/2000/svg">
<path fill-rule="evenodd" clip-rule="evenodd" d="M0 23.9998C0 10.7455 10.7937 0 24.1088 0C37.4236 0 48.2172 10.7455 48.2172 23.9998C48.2172 37.2543 37.4236 48 24.1088 48C10.7937 48 0 37.2543 0 23.9998Z" fill="#69C4CD"/>
<path fill-rule="evenodd" clip-rule="evenodd" d="M49.5173 19.6747C51.3119 19.6747 52.8373 20.058 54.1024 20.8192C55.3674 21.5858 56.3396 22.6153 57.0176 23.9183C57.701 25.2206 58.0376 26.6673 58.0376 28.2572V34.9331C58.0376 35.8048 57.3306 36.5137 56.4499 36.5137H55.9016C55.026 36.5137 54.3139 35.8048 54.3139 34.9331V33.4485H54.2467C53.9241 34.0519 53.5008 34.6171 52.9861 35.1441C52.4664 35.6706 51.8264 36.0922 51.0714 36.4183C50.3159 36.7392 49.4308 36.9019 48.4155 36.9019C47.1163 36.9019 45.962 36.6384 44.9565 36.1068C44.7401 35.9968 44.5332 35.8721 44.331 35.7379C43.1862 34.967 42.3057 33.9277 41.6895 32.6249C41.074 31.3273 40.7661 29.8905 40.7661 28.3194C40.7661 26.6863 41.1171 25.2206 41.8197 23.9183C42.5222 22.6153 43.5274 21.5858 44.8362 20.8192C45.7311 20.2973 46.7415 19.9526 47.8769 19.7944C48.3963 19.7129 48.9449 19.6747 49.5173 19.6747ZM69.4359 19.6756C71.0341 19.6756 72.422 19.9933 73.5996 20.6269C74.7771 21.2618 75.69 22.1329 76.3378 23.2401C76.9862 24.348 77.31 25.6109 77.31 27.0303V34.9331C77.31 35.8065 76.5991 36.514 75.7223 36.514H75.2037C74.3268 36.514 73.616 35.8065 73.616 34.9331V27.0625C73.616 26.2242 73.4216 25.4877 73.0326 24.8529C72.6436 24.2192 72.1305 23.7238 71.4934 23.3692C70.8561 23.0144 70.1595 22.8369 69.4035 22.8369C68.6689 22.8369 67.9828 23.0144 67.3459 23.3692C66.7084 23.7238 66.2007 24.2192 65.8227 24.8529C65.4445 25.4877 65.2558 26.2242 65.2558 27.0625V34.9331C65.2558 35.8065 64.5449 36.514 63.6681 36.514H63.1171C62.2402 36.514 61.5294 35.8065 61.5294 34.9331V27.0303C61.5294 25.6109 61.8534 24.348 62.5013 23.2401C63.1497 22.1329 64.0672 21.2618 65.2558 20.6269C66.4436 19.9933 67.8372 19.6756 69.4359 19.6756ZM83.6712 14.9756C84.548 14.9756 85.2589 15.6831 85.2589 16.0775V19.5835H88.823C89.7003 19.5835 90.4109 20.2911 90.4109 21.1643C90.4109 22.037 89.7003 22.7448 88.823 22.7448H85.2589V31.1967C85.2589 32.1704 85.4097 32.5739 85.7124 32.8852C86.0149 33.197 86.4144 33.3527 86.9118 33.3527H88.7909C89.668 33.3527 90.3788 34.0607 90.3788 34.9333C90.3788 35.8065 89.668 36.514 88.7909 36.514H86.2632C84.7934 36.514 83.6435 36.0944 82.8123 35.2558C81.9804 34.4171 81.5646 33.2775 81.5646 31.3573V22.7448H80.3008C79.4237 22.7448 78.7131 22.037 78.7131 21.1643C78.7131 20.2911 79.4237 19.5835 80.3008 19.5835H81.5646V16.0775C81.5646 15.6831 82.2752 14.9756 83.1525 14.9756H83.6712ZM99.8171 19.6757C101.588 19.6757 103.047 20.0523 104.192 20.8047C105.337 21.5577 106.185 22.568 106.735 23.8369C107.287 25.1056 107.562 26.5253 107.562 28.0947C107.562 28.1542 107.555 28.2755 107.545 28.4231C107.502 29.0191 107.003 29.4819 106.403 29.4819H95.7019C95.8316 30.3419 96.1444 31.0574 96.6415 31.6269C97.1384 32.1968 97.7644 32.6269 98.5216 32.9177C99.2771 33.208 100.12 33.3527 101.049 33.3527H103.9C104.777 33.3527 105.488 34.0607 105.488 34.9331C105.488 35.8065 104.777 36.514 103.9 36.514H101.049C99.1908 36.514 97.5656 36.1646 96.1716 35.4654C94.7781 34.7672 93.6931 33.7994 92.9151 32.5625C92.1371 31.3263 91.7491 29.9013 91.7491 28.2882C91.7491 26.5899 92.0944 25.0949 92.7857 23.8047C93.4769 22.514 94.4273 21.5034 95.637 20.7725C96.8469 20.0413 98.24 19.6757 99.8171 19.6757ZM118.025 19.6756C119.623 19.6756 121.011 19.9933 122.189 20.6269C123.366 21.2618 124.279 22.1329 124.927 23.2401C125.575 24.348 125.899 25.6109 125.899 27.0303V34.9331C125.899 35.8065 125.188 36.514 124.311 36.514H123.793C122.916 36.514 122.205 35.8065 122.205 34.9331V27.0625C122.205 26.2242 122.01 25.4877 121.621 24.8529C121.233 24.2192 120.719 23.7238 120.082 23.3692C119.445 23.0144 118.748 22.8369 117.993 22.8369C117.258 22.8369 116.572 23.0144 115.935 23.3692C115.297 23.7238 114.789 24.2192 114.412 24.8529C114.033 25.4877 113.844 26.2242 113.844 27.0625V34.9331C113.844 35.8065 113.133 36.514 112.257 36.514H111.706C110.829 36.514 110.118 35.8065 110.118 34.9331V27.0303C110.118 25.6109 110.443 24.348 111.09 23.2401C111.738 22.1329 112.656 21.2618 113.844 20.6269C115.033 19.9933 116.425 19.6756 118.025 19.6756ZM132.26 14.9758C133.137 14.9758 133.848 15.6834 133.848 16.0774V19.5834H137.412C138.289 19.5834 139 20.2913 139 21.1643C139 22.0372 138.289 22.7447 137.412 22.7447H133.848V31.197C133.848 32.1702 133.998 32.5737 134.301 32.885C134.604 33.197 135.003 33.3529 135.5 33.3529H137.38C138.257 33.3529 138.967 34.0604 138.967 34.9331C138.967 35.8065 138.257 36.514 137.38 36.514H134.852C133.382 36.514 132.233 36.0944 131.401 35.2558C130.569 34.4173 130.153 33.2775 130.153 31.3573V22.7447H128.89C128.013 22.7447 127.302 22.0372 127.302 21.1643C127.302 20.2913 128.013 19.5834 128.89 19.5834H130.153V16.0774C130.153 15.6834 130.864 14.9758 131.741 14.9758H132.26ZM49.4501 22.8357C49.0121 22.8357 48.6032 22.879 48.2181 22.9699C47.6941 23.0845 47.218 23.2859 46.7945 23.5638C46.0584 24.0474 45.5002 24.6985 45.1105 25.5126C44.7209 26.3316 44.528 27.2562 44.528 28.2906C44.528 29.3014 44.7209 30.2206 45.1105 31.0445C45.4568 31.7869 45.9382 32.3856 46.5537 32.8452C46.6261 32.9074 46.7028 32.9599 46.78 33.0131C47.5014 33.4966 48.3819 33.7411 49.4212 33.7411C50.3929 33.7411 51.2395 33.4966 51.9612 33.0131C52.688 32.5293 53.2557 31.8728 53.6643 31.0445C54.0734 30.2206 54.2705 29.2867 54.2467 28.2572C54.2467 27.223 54.0541 26.303 53.6643 25.4984C53.2746 24.6941 52.7262 24.0474 52.0141 23.5638C51.2974 23.0798 50.4458 22.8357 49.4501 22.8357ZM99.8171 22.7401C99.1692 22.7401 98.5966 22.8641 98.1 23.111C97.6031 23.3586 97.1815 23.6812 96.8361 24.0784C96.4905 24.4769 96.2253 24.9285 96.0424 25.4335C95.8586 25.9393 95.7343 26.4494 95.6696 26.9659H103.836C103.814 26.5575 103.754 26.1488 103.657 25.74C103.56 25.3318 103.409 24.9451 103.204 24.5784C102.998 24.2132 102.739 23.8962 102.426 23.6276C102.112 23.3586 101.74 23.1436 101.308 22.9819C100.876 22.8206 100.379 22.7401 99.8171 22.7401Z" fill="#69C4CD"/>
<path fill-rule="evenodd" clip-rule="evenodd" d="M39.6564 21.3126L29.229 10.9273C28.4559 10.1572 27.2011 10.1569 26.4268 10.9273C25.6529 11.6973 25.6529 12.9469 26.4268 13.7167L35.6868 22.936C35.8266 23.0743 35.856 23.2328 35.856 23.3411C35.856 23.4494 35.8266 23.6082 35.6868 23.7465L26.6212 32.7713C26.3976 32.9943 26.1586 32.9614 25.9978 32.8945C25.8368 32.8281 25.6443 32.6825 25.6443 32.368V27.9379L28.2623 25.3206C29.4354 24.1525 29.4251 22.5328 28.2515 21.3126L17.8242 10.9273C17.0507 10.1572 15.7963 10.1569 15.0215 10.9273C14.248 11.6973 14.248 12.9469 15.0215 13.7167L24.2821 22.936C24.4216 23.0743 24.4508 23.2328 24.4508 23.3411C24.4508 23.4494 24.4216 23.6082 24.2818 23.7465L15.2162 32.7713C14.9926 32.9943 14.7538 32.9614 14.593 32.8945C14.4316 32.8281 14.2391 32.6825 14.2391 32.368V23.8254C14.2391 22.7361 13.3523 21.8531 12.2578 21.8531C11.1633 21.8531 10.2762 22.7361 10.2762 23.8254V32.368C10.2762 34.2009 11.3752 35.8384 13.0761 36.5394C13.6409 36.7723 14.2315 36.8855 14.8166 36.8855C15.9945 36.8855 17.1493 36.4264 18.0189 35.5608L21.8438 31.7371V32.368C21.8438 34.2009 22.7804 35.8384 24.4813 36.5394C25.0457 36.7723 25.6363 36.8855 26.2214 36.8855C27.3997 36.8855 28.5542 36.4264 29.4237 35.5608L39.6672 25.3206C40.8403 24.1525 40.8303 22.5328 39.6564 21.3126ZM45.1102 25.5131C44.7202 26.3321 44.5277 27.2562 44.5277 28.2909C44.5277 29.3014 44.7202 30.2209 45.1102 31.0448C45.4563 31.7871 45.9375 32.3861 46.5535 32.8457C46.1012 33.976 45.5671 35.0678 44.9562 36.107C44.7395 35.997 44.5329 35.8726 44.3304 35.7384C43.1859 34.967 42.3052 33.9277 41.6892 32.6252C41.0732 31.3275 40.7656 29.8906 40.7656 28.3199C40.7656 26.6866 41.1168 25.2208 41.8194 23.9181C42.5216 22.6155 43.5271 21.5862 44.8356 20.8196C45.7308 20.2974 46.7412 19.953 47.8766 19.7948C48.0592 20.8342 48.1747 21.8925 48.2178 22.97C47.6935 23.0852 47.2175 23.286 46.7942 23.5639C46.0578 24.0476 45.4999 24.699 45.1102 25.5131Z" fill="#1A1A25"/>
</svg>
